<svg xmlns="http://www.w3.org/2000/svg" version="1.1" xmlns:xlink="http://www.w3.org/1999/xlink" xmlns:svgjs="http://svgjs.dev/svgjs" width="1500" height="1500" viewBox="0 0 1500 1500"><rect width="1500" height="1500" fill="#435585"></rect><g transform="matrix(0.6666666666666666,0,0,0.6666666666666666,249.39393939393938,705.8870812571926)"><svg viewBox="0 0 396 35" data-background-color="#435585" preserveAspectRatio="xMidYMid meet" height="132" width="1500" xmlns="http://www.w3.org/2000/svg" xmlns:xlink="http://www.w3.org/1999/xlink"><g id="tight-bounds" transform="matrix(1,0,0,1,0.2400000000000091,0.04491086361659313)"><svg viewBox="0 0 395.52 34.910178272766835" height="34.910178272766835" width="395.52"><g><svg viewBox="0 0 460.72118336331096 40.665095684803" height="34.910178272766835" width="395.52"><g><rect width="3.0560169126952346" height="40.665095684803" x="54.14512217654443" y="0" fill="#f5e8c7" opacity="1" stroke-width="0" stroke="transparent" fill-opacity="1" class="rect-qz-0" data-fill-palette-color="primary" rx="1%" id="qz-0" data-palette-color="#f5e8c7"></rect></g><g transform="matrix(1,0,0,1,65.20118336331096,3.3887579737335827)"><svg viewBox="0 0 395.52 33.887579737335834" height="33.887579737335834" width="395.52"><g id="textblocktransform"><svg viewBox="0 0 395.52 33.887579737335834" height="33.887579737335834" width="395.52" id="textblock"><g><svg viewBox="0 0 395.52 33.887579737335834" height="33.887579737335834" width="395.52"><g transform="matrix(1,0,0,1,0,0)"><svg width="395.52" viewBox="-0.1 -33.45 390.35 33.45" height="33.887579737335834" data-palette-color="#f5e8c7"><path d="M22.85-28.66L22.85-31.25 8.74-31.25 8.74-28.66 14.5-28.66 14.5-11.06 17.11-11.06 17.11-28.66 22.85-28.66ZM10.69-33.45L18.21-33.45Q20.68-33.45 22.68-32.71 24.68-31.98 26.09-30.71 27.49-29.44 28.25-27.75 29-26.05 29-24.15L29-24.15 29-9.3Q29-7.4 28.25-5.7 27.49-4 26.09-2.73 24.68-1.46 22.68-0.73 20.68 0 18.21 0L18.21 0 10.69 0Q8.23 0 6.23-0.73 4.22-1.46 2.82-2.73 1.42-4 0.66-5.7-0.1-7.4-0.1-9.3L-0.1-9.3-0.1-24.15Q-0.1-26.05 0.66-27.75 1.42-29.44 2.82-30.71 4.22-31.98 6.23-32.71 8.23-33.45 10.69-33.45L10.69-33.45ZM52.19-11.06L52.19-31.25 49.66-31.25 49.66-22.71 39.5-22.71 39.5-31.25 36.91-31.25 36.91-11.06 39.5-11.06 39.5-20.14 49.66-20.14 49.66-11.06 52.19-11.06ZM39.6-33.45L47.12-33.45Q49.58-33.45 51.58-32.71 53.59-31.98 54.99-30.71 56.39-29.44 57.15-27.75 57.91-26.05 57.91-24.15L57.91-24.15 57.91-9.3Q57.91-7.4 57.15-5.7 56.39-4 54.99-2.73 53.59-1.46 51.58-0.73 49.58 0 47.12 0L47.12 0 39.6 0Q37.13 0 35.13-0.73 33.13-1.46 31.72-2.73 30.32-4 29.56-5.7 28.81-7.4 28.81-9.3L28.81-9.3 28.81-24.15Q28.81-26.05 29.56-27.75 30.32-29.44 31.72-30.71 33.13-31.98 35.13-32.71 37.13-33.45 39.6-33.45L39.6-33.45ZM68.5-33.45L76.02-33.45Q78.49-33.45 80.49-32.71 82.49-31.98 83.89-30.71 85.3-29.44 86.05-27.75 86.81-26.05 86.81-24.15L86.81-24.15 86.81-9.3Q86.81-7.4 86.05-5.7 85.3-4 83.89-2.73 82.49-1.46 80.49-0.73 78.49 0 76.02 0L76.02 0 68.5 0Q66.04 0 64.03-0.73 62.03-1.46 60.63-2.73 59.22-4 58.47-5.7 57.71-7.4 57.71-9.3L57.71-9.3 57.71-24.15Q57.71-26.05 58.47-27.75 59.22-29.44 60.63-30.71 62.03-31.98 64.03-32.71 66.04-33.45 68.5-33.45L68.5-33.45ZM79.22-21.19L79.22-27.34 78.85-29.39 77.31-30.96 74.85-31.25 69.55-31.25 67.11-30.96 65.57-29.39 65.2-27.34 65.2-15.75 65.57-13.7 67.11-12.16 69.55-11.84 75.7-11.84 78.56-12.21 77.95-14.84 75.65-14.45 69.72-14.45 68.16-14.7 67.82-16.16 67.82-21.19 79.22-21.19ZM76.61-23.75L67.82-23.75 67.82-27.05 68.01-28.44 69.72-28.71 74.7-28.71 76.36-28.44 76.61-27 76.61-23.75ZM104.6-33.45L112.12-33.45Q114.59-33.45 116.59-32.71 118.59-31.98 120-30.71 121.4-29.44 122.16-27.75 122.91-26.05 122.91-24.15L122.91-24.15 122.91-9.3Q122.91-7.4 122.16-5.7 121.4-4 120-2.73 118.59-1.46 116.59-0.73 114.59 0 112.12 0L112.12 0 104.6 0Q102.14 0 100.14-0.73 98.13-1.46 96.73-2.73 95.33-4 94.57-5.7 93.81-7.4 93.81-9.3L93.81-9.3 93.81-24.15Q93.81-26.05 94.57-27.75 95.33-29.44 96.73-30.71 98.13-31.98 100.14-32.71 102.14-33.45 104.6-33.45L104.6-33.45ZM109.12-29.17L108.32-30.86 106.97-31.25 103.77-31.25 101.72-30.91 100.16-29.35 100.16-11.06 102.77-11.06 102.77-28.44Q103.12-28.52 103.38-28.54 103.65-28.56 103.97-28.66L103.97-28.66 106.75-28.66Q107.02-28.56 107.28-28.54 107.53-28.52 107.8-28.44L107.8-28.44 107.8-18.09 110.41-18.09 110.41-28.44 111.46-28.66 114.27-28.66Q114.57-28.56 114.86-28.54 115.15-28.52 115.47-28.44L115.47-28.44 115.47-11.06 118.06-11.06 118.06-29.35 116.52-30.91 114.47-31.25 111.27-31.25 109.95-30.86 109.12-29.17ZM133.51-33.45L141.03-33.45Q143.49-33.45 145.5-32.71 147.5-31.98 148.9-30.71 150.3-29.44 151.06-27.75 151.82-26.05 151.82-24.15L151.82-24.15 151.82-9.3Q151.82-7.4 151.06-5.7 150.3-4 148.9-2.73 147.5-1.46 145.5-0.73 143.49 0 141.03 0L141.03 0 133.51 0Q131.04 0 129.04-0.73 127.04-1.46 125.63-2.73 124.23-4 123.47-5.7 122.72-7.4 122.72-9.3L122.72-9.3 122.72-24.15Q122.72-26.05 123.47-27.75 124.23-29.44 125.63-30.71 127.04-31.98 129.04-32.71 131.04-33.45 133.51-33.45L133.51-33.45ZM146.06-14.99L146.06-27.29 145.72-29.35 144.18-30.91 141.66-31.25 135.12-31.25 132.63-30.91 131.07-29.35 130.77-27.29 130.77-14.99 131.07-12.89 132.68-11.35 135.12-11.06 141.66-11.06 144.18-11.35 145.72-12.89 146.06-14.99ZM143.47-15.26L143.13-13.89 141.52-13.65 135.27-13.65 133.68-13.89 133.31-15.36 133.31-27.05 133.56-28.39 135.27-28.66 141.52-28.66 143.22-28.39 143.47-26.95 143.47-15.26ZM165.51-11.35L167.07-10.89 168.71-11.35 170.18-12.79 174.96-30.76 172.13-31.25 167.71-13.79 167.17-13.6 166.51-13.75 162.12-31.25 159.26-30.76 164.07-12.79 165.51-11.35ZM162.41-33.45L169.93-33.45Q172.4-33.45 174.4-32.71 176.4-31.98 177.8-30.71 179.21-29.44 179.97-27.75 180.72-26.05 180.72-24.15L180.72-24.15 180.72-9.3Q180.72-7.4 179.97-5.7 179.21-4 177.8-2.73 176.4-1.46 174.4-0.73 172.4 0 169.93 0L169.93 0 162.41 0Q159.95 0 157.94-0.73 155.94-1.46 154.54-2.73 153.13-4 152.38-5.7 151.62-7.4 151.62-9.3L151.62-9.3 151.62-24.15Q151.62-26.05 152.38-27.75 153.13-29.44 154.54-30.71 155.94-31.98 157.94-32.71 159.95-33.45 162.41-33.45L162.41-33.45ZM195.12-13.65L189.36-13.65 189.36-11.06 203.47-11.06 203.47-13.65 197.74-13.65 197.74-28.66 203.47-28.66 203.47-31.25 189.36-31.25 189.36-28.66 195.12-28.66 195.12-13.65ZM191.32-33.45L198.84-33.45Q201.3-33.45 203.3-32.71 205.3-31.98 206.71-30.71 208.11-29.44 208.87-27.75 209.63-26.05 209.63-24.15L209.63-24.15 209.63-9.3Q209.63-7.4 208.87-5.7 208.11-4 206.71-2.73 205.3-1.46 203.3-0.73 201.3 0 198.84 0L198.84 0 191.32 0Q188.85 0 186.85-0.73 184.85-1.46 183.44-2.73 182.04-4 181.28-5.7 180.52-7.4 180.52-9.3L180.52-9.3 180.52-24.15Q180.52-26.05 181.28-27.75 182.04-29.44 183.44-30.71 184.85-31.98 186.85-32.71 188.85-33.45 191.32-33.45L191.32-33.45ZM220.22-33.45L227.74-33.45Q230.2-33.45 232.21-32.71 234.21-31.98 235.61-30.71 237.02-29.44 237.77-27.75 238.53-26.05 238.53-24.15L238.53-24.15 238.53-9.3Q238.53-7.4 237.77-5.7 237.02-4 235.61-2.73 234.21-1.46 232.21-0.73 230.2 0 227.74 0L227.74 0 220.22 0Q217.75 0 215.75-0.73 213.75-1.46 212.35-2.73 210.94-4 210.19-5.7 209.43-7.4 209.43-9.3L209.43-9.3 209.43-24.15Q209.43-26.05 210.19-27.75 210.94-29.44 212.35-30.71 213.75-31.98 215.75-32.71 217.75-33.45 220.22-33.45L220.22-33.45ZM230.94-21.19L230.94-27.34 230.57-29.39 229.03-30.96 226.57-31.25 221.27-31.25 218.83-30.96 217.29-29.39 216.92-27.34 216.92-15.75 217.29-13.7 218.83-12.16 221.27-11.84 227.42-11.84 230.28-12.21 229.67-14.84 227.37-14.45 221.44-14.45 219.88-14.7 219.54-16.16 219.54-21.19 230.94-21.19ZM228.32-23.75L219.54-23.75 219.54-27.05 219.73-28.44 221.44-28.71 226.42-28.71 228.08-28.44 228.32-27 228.32-23.75ZM256.32-33.45L263.84-33.45Q266.31-33.45 268.31-32.71 270.31-31.98 271.72-30.71 273.12-29.44 273.88-27.75 274.63-26.05 274.63-24.15L274.63-24.15 274.63-9.3Q274.63-7.4 273.88-5.7 273.12-4 271.72-2.73 270.31-1.46 268.31-0.73 266.31 0 263.84 0L263.84 0 256.32 0Q253.86 0 251.85-0.73 249.85-1.46 248.45-2.73 247.05-4 246.29-5.7 245.53-7.4 245.53-9.3L245.53-9.3 245.53-24.15Q245.53-26.05 246.29-27.75 247.05-29.44 248.45-30.71 249.85-31.98 251.85-32.71 253.86-33.45 256.32-33.45L256.32-33.45ZM268.43-14.99L268.43-18.7 268.09-20.8 266.53-22.34 263.99-22.61 258.52-22.61 257.03-22.9Q256.91-23.32 256.86-23.65 256.81-23.97 256.69-24.34L256.69-24.34 256.69-26.9 257.03-28.34 258.64-28.66 264.84-28.66 267.14-28.2 267.72-30.86 264.89-31.25 258.47-31.25 256.03-30.91 254.44-29.35 254.13-27.29 254.13-23.95 254.44-21.9 256.03-20.36 258.47-20.04 263.99-20.04 265.48-19.8Q265.55-19.43 265.65-19.12 265.75-18.8 265.82-18.46L265.82-18.46 265.82-15.26Q265.77-14.94 265.66-14.58 265.55-14.21 265.48-13.89L265.48-13.89 263.89-13.65 257.84-13.65 255.44-14.04 254.83-11.4 257.69-11.06 264.04-11.06 266.53-11.35 268.09-12.89 268.43-14.99ZM297.38-28.66L297.38-31.25 283.27-31.25 283.27-28.66 289.04-28.66 289.04-11.06 291.65-11.06 291.65-28.66 297.38-28.66ZM285.23-33.45L292.75-33.45Q295.21-33.45 297.21-32.71 299.22-31.98 300.62-30.71 302.02-29.44 302.78-27.75 303.54-26.05 303.54-24.15L303.54-24.15 303.54-9.3Q303.54-7.4 302.78-5.7 302.02-4 300.62-2.73 299.22-1.46 297.21-0.73 295.21 0 292.75 0L292.75 0 285.23 0Q282.76 0 280.76-0.73 278.76-1.46 277.35-2.73 275.95-4 275.19-5.7 274.44-7.4 274.44-9.3L274.44-9.3 274.44-24.15Q274.44-26.05 275.19-27.75 275.95-29.44 277.35-30.71 278.76-31.98 280.76-32.71 282.76-33.45 285.23-33.45L285.23-33.45ZM314.13-33.45L321.65-33.45Q324.12-33.45 326.12-32.71 328.12-31.98 329.52-30.71 330.93-29.44 331.68-27.75 332.44-26.05 332.44-24.15L332.44-24.15 332.44-9.3Q332.44-7.4 331.68-5.7 330.93-4 329.52-2.73 328.12-1.46 326.12-0.73 324.12 0 321.65 0L321.65 0 314.13 0Q311.66 0 309.66-0.73 307.66-1.46 306.26-2.73 304.85-4 304.1-5.7 303.34-7.4 303.34-9.3L303.34-9.3 303.34-24.15Q303.34-26.05 304.1-27.75 304.85-29.44 306.26-30.71 307.66-31.98 309.66-32.71 311.66-33.45 314.13-33.45L314.13-33.45ZM324.85-21.19L324.85-27.34 324.48-29.39 322.94-30.96 320.48-31.25 315.18-31.25 312.74-30.96 311.2-29.39 310.83-27.34 310.83-15.75 311.2-13.7 312.74-12.16 315.18-11.84 321.33-11.84 324.19-12.21 323.58-14.84 321.28-14.45 315.35-14.45 313.79-14.7 313.45-16.16 313.45-21.19 324.85-21.19ZM322.24-23.75L313.45-23.75 313.45-27.05 313.64-28.44 315.35-28.71 320.33-28.71 321.99-28.44 322.24-27 322.24-23.75ZM351.14-11.35L353.56-11.08 353.56-16.65 353.56-27.34 353.56-29.39 351.9-30.96 349.45-31.25 343.89-31.25 341.03-30.91 341.64-28.25 343.94-28.71 349.38-28.71 350.85-28.39 351.19-27.1 351.19-21.41 349.45-21.7 343.89-21.7 341.45-21.34 339.88-19.8 339.54-17.8 339.54-14.94 339.88-12.89 341.45-11.35 343.89-11.06 349.24-11.06 351.14-11.35ZM351.19-15.21L351.19-13.89 349.28-13.65 344.03-13.65 342.5-13.89 342.16-15.36 342.16-17.46 342.35-18.85 344.03-19.09 349.33-19.09 351.19-18.9 351.19-15.21ZM343.03-33.45L350.55-33.45Q353.02-33.45 355.02-32.71 357.02-31.98 358.43-30.71 359.83-29.44 360.59-27.75 361.34-26.05 361.34-24.15L361.34-24.15 361.34-9.3Q361.34-7.4 360.59-5.7 359.83-4 358.43-2.73 357.02-1.46 355.02-0.73 353.02 0 350.55 0L350.55 0 343.03 0Q340.57 0 338.57-0.73 336.56-1.46 335.16-2.73 333.76-4 333-5.7 332.24-7.4 332.24-9.3L332.24-9.3 332.24-24.15Q332.24-26.05 333-27.75 333.76-29.44 335.16-30.71 336.56-31.98 338.57-32.71 340.57-33.45 343.03-33.45L343.03-33.45ZM371.94-33.45L379.46-33.45Q381.92-33.45 383.92-32.71 385.93-31.98 387.33-30.71 388.73-29.44 389.49-27.75 390.25-26.05 390.25-24.15L390.25-24.15 390.25-9.3Q390.25-7.4 389.49-5.7 388.73-4 387.33-2.73 385.93-1.46 383.92-0.73 381.92 0 379.46 0L379.46 0 371.94 0Q369.47 0 367.47-0.73 365.47-1.46 364.06-2.73 362.66-4 361.9-5.7 361.15-7.4 361.15-9.3L361.15-9.3 361.15-24.15Q361.15-26.05 361.9-27.75 362.66-29.44 364.06-30.71 365.47-31.98 367.47-32.71 369.47-33.45 371.94-33.45L371.94-33.45ZM384.54-14.99L384.54-27.29 384.19-29.35 382.66-30.91 380.14-31.25 369.25-31.25 369.25-11.06 380.14-11.06 382.66-11.35 384.19-12.89 384.54-14.99ZM381.95-15.26L381.61-13.89 379.99-13.65 371.79-13.65 371.79-28.66 379.99-28.66 381.7-28.39 381.95-26.95 381.95-15.26Z" opacity="1" transform="matrix(1,0,0,1,0,0)" fill="#f5e8c7" class="wordmark-text-0" data-fill-palette-color="primary" id="text-0"></path></svg></g></svg></g></svg></g></svg></g><g transform="matrix(1,0,0,1,0,1.599493763602247)"><svg viewBox="0 0 46.14507790247314 37.466108157598505" height="37.466108157598505" width="46.14507790247314"><g><svg xmlns="http://www.w3.org/2000/svg" xmlns:xlink="http://www.w3.org/1999/xlink" version="1.1" x="0" y="0" viewBox="3.187999999999997 11.920000000000009 94.06099999999999 76.36999999999998" enable-background="new 0 0 100 100" xml:space="preserve" height="37.466108157598505" width="46.14507790247314" class="icon-icon-0" data-fill-palette-color="accent" id="icon-0"><g fill="#f5e8c7" data-fill-palette-color="accent"><path fill="#f5e8c7" d="M67.022 66.238c4.007-0.975 9.697-2.172 15.654-2.81 0.27-1.359 0.416-2.747 0.416-4.161 0-0.529-0.022-1.056-0.061-1.578v-7.557C80.241 56.723 74.527 62.363 67.022 66.238z" data-fill-palette-color="accent"></path><path fill="#f5e8c7" d="M43.141 69.965c22.065 0 39.952-12.994 39.952-29.023 0-16.029-17.887-29.022-39.952-29.022-22.065 0-39.952 12.994-39.952 29.022C3.188 56.971 21.076 69.965 43.141 69.965zM9.82 40.94c0-4.666 5.207-8.448 11.63-8.448 6.423 0 11.63 3.783 11.63 8.448 0 4.666-5.207 8.449-11.63 8.449C15.026 49.389 9.82 45.606 9.82 40.94zM76.462 40.94c0 4.666-5.209 8.449-11.632 8.449S53.2 45.606 53.2 40.94c0-4.666 5.207-8.448 11.63-8.448S76.462 36.275 76.462 40.94zM31.509 56.698c0-4.665 5.208-8.449 11.629-8.449 6.424 0 11.631 3.784 11.631 8.449 0 4.667-5.208 8.448-11.631 8.448C36.716 65.146 31.509 61.365 31.509 56.698zM40.176 40.941c0-1.189 1.328-2.153 2.965-2.153s2.965 0.964 2.965 2.153c0 1.189-1.328 2.154-2.965 2.154S40.176 42.131 40.176 40.941zM54.77 25.186c0 4.666-5.208 8.449-11.631 8.449-6.422 0-11.629-3.783-11.629-8.449 0-4.667 5.208-8.449 11.629-8.449C49.562 16.736 54.77 20.519 54.77 25.186z" data-fill-palette-color="accent"></path><path fill="#f5e8c7" d="M85.484 64.411c-10.738 0.977-24.245 4.428-30.171 6.047-3.854 0.868-7.939 1.339-12.173 1.339-18.725 0-34.613-9.143-39.907-21.701v7.876c-0.026 0.43-0.045 0.861-0.045 1.295 0 16.03 17.887 29.023 39.952 29.023 7.255 0 14.053-1.412 19.916-3.867 22.008-5.756 34.193-3.097 34.193-3.097V64.955C94.481 64.033 90.256 63.978 85.484 64.411z" data-fill-palette-color="accent"></path></g></svg></g></svg></g></svg></g><defs></defs></svg><rect width="395.52" height="34.910178272766835" fill="none" stroke="none" visibility="hidden"></rect></g></svg></g></svg>